G04 EAGLE Gerber RS-274X export*
G75*
%MOMM*%
%FSLAX34Y34*%
%LPD*%
%INEAGLE Copper Layer 2*%
%IPPOS*%
%AMOC8*
5,1,8,0,0,1.08239X$1,22.5*%
G01*
%ADD10C,1.800000*%
%ADD11C,2.100000*%
%ADD12C,1.308000*%
%ADD13C,1.508000*%
%ADD14C,1.524000*%
%ADD15C,0.756400*%


D10*
X1473200Y0D03*
X1473200Y25000D03*
X1498200Y25000D03*
X1498200Y0D03*
X1448200Y0D03*
X1448200Y25000D03*
D11*
X1191700Y88900D03*
X1246700Y88900D03*
X1191700Y299720D03*
X1246700Y299720D03*
D12*
X1562100Y381000D03*
X1562100Y76200D03*
X1562100Y101600D03*
X1562100Y127000D03*
X1562100Y152400D03*
X1562100Y177800D03*
X1562100Y203200D03*
X1562100Y228600D03*
X1562100Y254000D03*
X1562100Y279400D03*
X1562100Y304800D03*
X1409700Y76200D03*
X1409700Y101600D03*
X1409700Y254000D03*
X1409700Y279400D03*
X1409700Y304800D03*
X1409700Y330200D03*
X1409700Y406400D03*
X1562100Y406400D03*
X1562100Y355600D03*
X1562100Y330200D03*
X1409700Y381000D03*
X1409700Y355600D03*
X1409700Y127000D03*
X1409700Y228600D03*
X1409700Y203200D03*
X1409700Y177800D03*
X1409700Y152400D03*
D13*
X1193800Y-12700D03*
X1219200Y-12700D03*
X1244600Y-12700D03*
D11*
X1191700Y196850D03*
X1246700Y196850D03*
D14*
X1397000Y12700D03*
X1397000Y38100D03*
D15*
X1447800Y-38100D03*
X1375763Y-38100D03*
X1330960Y377190D03*
X1386840Y-12700D03*
X1343660Y376837D03*
X1447800Y114300D03*
X1422400Y0D03*
X1338862Y25400D03*
X1353538Y25400D03*
X1384300Y88900D03*
X1356360Y317500D03*
X1366520Y294640D03*
X1373152Y304800D03*
X1320800Y225425D03*
X1317625Y158750D03*
X1338580Y50800D03*
X1219200Y139700D03*
X1320800Y190500D03*
X1361440Y152400D03*
M02*
