G04 EAGLE Gerber RS-274X export*
G75*
%MOMM*%
%FSLAX34Y34*%
%LPD*%
%INSoldermask Top*%
%IPPOS*%
%AMOC8*
5,1,8,0,0,1.08239X$1,22.5*%
G01*
%ADD10C,3.378200*%
%ADD11C,2.003200*%
%ADD12C,1.503200*%
%ADD13R,2.303200X2.303200*%
%ADD14R,1.703200X1.603200*%
%ADD15R,1.103200X1.003200*%
%ADD16R,1.003200X1.403200*%
%ADD17C,1.511200*%
%ADD18R,0.803200X2.403200*%
%ADD19R,1.603200X1.703200*%
%ADD20R,2.082800X2.082800*%
%ADD21C,2.082800*%
%ADD22R,1.403200X1.403200*%
%ADD23C,0.441406*%
%ADD24P,1.869504X8X202.500000*%
%ADD25C,0.959600*%


D10*
X1120140Y370840D03*
X1120140Y17780D03*
X1600200Y17780D03*
X1600200Y370840D03*
D11*
X1473200Y0D03*
X1473200Y25000D03*
X1498200Y25000D03*
X1498200Y0D03*
X1448200Y0D03*
X1448200Y25000D03*
D12*
X1460700Y-13400D03*
D13*
X1191700Y88900D03*
X1246700Y88900D03*
D14*
X1346200Y129450D03*
X1346200Y149950D03*
X1346200Y88175D03*
X1346200Y108675D03*
D15*
X1356200Y234925D03*
X1356200Y215925D03*
X1336200Y225425D03*
X1336200Y181000D03*
X1336200Y200000D03*
X1356200Y190500D03*
D13*
X1191700Y299720D03*
X1246700Y299720D03*
D16*
X1257300Y398300D03*
X1231900Y398300D03*
X1231900Y338300D03*
X1257300Y338300D03*
D14*
X1181100Y365850D03*
X1181100Y345350D03*
D17*
X1555560Y381000D02*
X1568640Y381000D01*
X1568640Y76200D02*
X1555560Y76200D01*
X1555560Y101600D02*
X1568640Y101600D01*
X1568640Y127000D02*
X1555560Y127000D01*
X1555560Y152400D02*
X1568640Y152400D01*
X1568640Y177800D02*
X1555560Y177800D01*
X1555560Y203200D02*
X1568640Y203200D01*
X1568640Y228600D02*
X1555560Y228600D01*
X1555560Y254000D02*
X1568640Y254000D01*
X1568640Y279400D02*
X1555560Y279400D01*
X1555560Y304800D02*
X1568640Y304800D01*
X1416240Y76200D02*
X1403160Y76200D01*
X1403160Y101600D02*
X1416240Y101600D01*
X1416240Y254000D02*
X1403160Y254000D01*
X1403160Y279400D02*
X1416240Y279400D01*
X1416240Y304800D02*
X1403160Y304800D01*
X1403160Y330200D02*
X1416240Y330200D01*
X1416240Y406400D02*
X1403160Y406400D01*
X1555560Y406400D02*
X1568640Y406400D01*
X1568640Y355600D02*
X1555560Y355600D01*
X1555560Y330200D02*
X1568640Y330200D01*
X1416240Y381000D02*
X1403160Y381000D01*
X1403160Y355600D02*
X1416240Y355600D01*
X1416240Y127000D02*
X1403160Y127000D01*
X1403160Y228600D02*
X1416240Y228600D01*
X1416240Y203200D02*
X1403160Y203200D01*
X1403160Y177800D02*
X1416240Y177800D01*
X1416240Y152400D02*
X1403160Y152400D01*
D18*
X1324610Y342300D03*
X1324610Y394300D03*
X1311910Y342300D03*
X1337310Y342300D03*
X1350010Y342300D03*
X1311910Y394300D03*
X1337310Y394300D03*
X1350010Y394300D03*
D19*
X1320710Y282575D03*
X1341210Y282575D03*
X1320710Y314325D03*
X1341210Y314325D03*
D20*
X1193800Y-12700D03*
D21*
X1219200Y-12700D03*
X1244600Y-12700D03*
D14*
X1149350Y-26125D03*
X1149350Y-5625D03*
X1289050Y-26125D03*
X1289050Y-5625D03*
D22*
X1323000Y-31750D03*
X1344000Y-31750D03*
D19*
X1343750Y3175D03*
X1323250Y3175D03*
X1556475Y15875D03*
X1535975Y15875D03*
D22*
X1534455Y-31750D03*
X1555455Y-31750D03*
D13*
X1191700Y196850D03*
X1246700Y196850D03*
D16*
X1362600Y127000D03*
D23*
X1377791Y122191D02*
X1383409Y122191D01*
X1377791Y122191D02*
X1377791Y131809D01*
X1383409Y131809D01*
X1383409Y122191D01*
X1383409Y126384D02*
X1377791Y126384D01*
X1377791Y130577D02*
X1383409Y130577D01*
D14*
X1295400Y22770D03*
X1295400Y43270D03*
D24*
X1397000Y12700D03*
X1397000Y38100D03*
D15*
X1409540Y-15900D03*
X1409540Y-34900D03*
X1389540Y-25400D03*
D14*
X1320800Y65950D03*
X1320800Y86450D03*
D19*
X1318350Y139700D03*
X1297850Y139700D03*
D25*
X1447800Y-38100D03*
X1375763Y-38100D03*
X1330960Y377190D03*
X1386840Y-12700D03*
X1343660Y376837D03*
X1447800Y114300D03*
X1422400Y0D03*
X1338862Y25400D03*
X1353538Y25400D03*
X1384300Y88900D03*
X1356360Y317500D03*
X1366520Y294640D03*
X1373152Y304800D03*
X1320800Y225425D03*
X1317625Y158750D03*
X1338580Y50800D03*
X1219200Y139700D03*
X1320800Y190500D03*
X1361440Y152400D03*
M02*
