G04 EAGLE Gerber RS-274X export*
G75*
%MOMM*%
%FSLAX34Y34*%
%LPD*%
%INBottom Copper*%
%IPPOS*%
%AMOC8*
5,1,8,0,0,1.08239X$1,22.5*%
G01*
%ADD10C,1.800000*%
%ADD11R,2.100000X2.100000*%
%ADD12C,1.308000*%
%ADD13R,1.879600X1.879600*%
%ADD14C,1.879600*%
%ADD15P,1.649562X8X202.500000*%
%ADD16C,0.756400*%
%ADD17C,0.406400*%


D10*
X1473200Y0D03*
X1473200Y25000D03*
X1498200Y25000D03*
X1498200Y0D03*
X1448200Y0D03*
X1448200Y25000D03*
D11*
X1191700Y88900D03*
X1246700Y88900D03*
X1191700Y299720D03*
X1246700Y299720D03*
D12*
X1555560Y381000D02*
X1568640Y381000D01*
X1568640Y76200D02*
X1555560Y76200D01*
X1555560Y101600D02*
X1568640Y101600D01*
X1568640Y127000D02*
X1555560Y127000D01*
X1555560Y152400D02*
X1568640Y152400D01*
X1568640Y177800D02*
X1555560Y177800D01*
X1555560Y203200D02*
X1568640Y203200D01*
X1568640Y228600D02*
X1555560Y228600D01*
X1555560Y254000D02*
X1568640Y254000D01*
X1568640Y279400D02*
X1555560Y279400D01*
X1555560Y304800D02*
X1568640Y304800D01*
X1416240Y76200D02*
X1403160Y76200D01*
X1403160Y101600D02*
X1416240Y101600D01*
X1416240Y254000D02*
X1403160Y254000D01*
X1403160Y279400D02*
X1416240Y279400D01*
X1416240Y304800D02*
X1403160Y304800D01*
X1403160Y330200D02*
X1416240Y330200D01*
X1416240Y406400D02*
X1403160Y406400D01*
X1555560Y406400D02*
X1568640Y406400D01*
X1568640Y355600D02*
X1555560Y355600D01*
X1555560Y330200D02*
X1568640Y330200D01*
X1416240Y381000D02*
X1403160Y381000D01*
X1403160Y355600D02*
X1416240Y355600D01*
X1416240Y127000D02*
X1403160Y127000D01*
X1403160Y228600D02*
X1416240Y228600D01*
X1416240Y203200D02*
X1403160Y203200D01*
X1403160Y177800D02*
X1416240Y177800D01*
X1416240Y152400D02*
X1403160Y152400D01*
D13*
X1193800Y-12700D03*
D14*
X1219200Y-12700D03*
X1244600Y-12700D03*
D11*
X1191700Y196850D03*
X1246700Y196850D03*
D15*
X1397000Y12700D03*
X1397000Y38100D03*
D16*
X1447800Y-38100D03*
D17*
X1375763Y-38100D01*
D16*
X1375763Y-38100D03*
D17*
X1369342Y73096D02*
X1369342Y261620D01*
X1331242Y299720D01*
D16*
X1330960Y377190D03*
D17*
X1331242Y376908D01*
X1331242Y299720D01*
X1467356Y55844D02*
X1498200Y25000D01*
X1467356Y55844D02*
X1440684Y55844D01*
X1397540Y12700D02*
X1397000Y12700D01*
X1424223Y39382D02*
X1440684Y55844D01*
X1424223Y39382D02*
X1405467Y58138D01*
X1384300Y58138D01*
D16*
X1386840Y-12700D03*
D17*
X1386840Y2000D01*
X1397540Y12700D01*
X1424223Y39382D01*
X1384300Y58138D02*
X1369342Y73096D01*
D16*
X1343660Y376837D03*
D17*
X1343660Y300003D01*
X1379728Y263935D01*
D16*
X1447800Y114300D03*
D17*
X1447800Y114798D01*
X1422962Y139636D01*
D16*
X1422400Y0D03*
D17*
X1422944Y544D02*
X1422944Y20864D01*
X1422944Y544D02*
X1422400Y0D01*
X1422944Y20864D02*
X1442720Y40640D01*
X1457960Y40640D01*
X1473200Y25400D01*
X1473200Y25000D01*
X1379728Y149352D02*
X1379728Y263935D01*
X1379728Y149352D02*
X1389444Y139636D01*
X1422962Y139636D01*
D16*
X1338862Y25400D03*
D17*
X1353538Y25400D01*
D16*
X1353538Y25400D03*
X1384300Y88900D03*
D17*
X1549400Y88900D01*
X1562100Y101600D01*
X1473200Y317500D02*
X1562100Y406400D01*
D16*
X1356360Y317500D03*
D17*
X1473200Y317500D01*
X1409700Y279400D02*
X1381760Y279400D01*
X1366520Y294640D01*
D16*
X1366520Y294640D03*
X1373152Y304800D03*
D17*
X1409700Y304800D01*
D16*
X1320800Y225425D03*
D17*
X1292225Y196850D01*
X1279525Y196850D01*
X1317625Y158750D01*
D16*
X1317625Y158750D03*
D17*
X1279525Y196850D02*
X1260475Y215900D01*
X1206500Y215900D01*
X1191700Y201100D01*
X1191700Y196850D01*
D16*
X1338580Y50800D03*
D17*
X1351280Y38100D01*
X1397000Y38100D01*
X1257554Y-7334D02*
X1257554Y-18066D01*
X1257300Y-18320D02*
X1257300Y-63500D01*
X1257300Y-18320D02*
X1257554Y-18066D01*
X1257554Y-7334D02*
X1219200Y31020D01*
D16*
X1219200Y139700D03*
D17*
X1219200Y31020D01*
X1498200Y0D02*
X1498200Y-2335D01*
X1437035Y-63500D01*
X1257300Y-63500D01*
D16*
X1320800Y190500D03*
D17*
X1325880Y190500D01*
X1361440Y154940D02*
X1361440Y152400D01*
X1361440Y154940D02*
X1325880Y190500D01*
D16*
X1361440Y152400D03*
M02*
