M48
;GenerationSoftware,Autodesk,EAGLE,9.4.2*%
;CreationDate,2019-08-23T07:13:16Z*%
FMAT,2
ICI,OFF
METRIC,TZ,000.000
T8C0.350
T7C0.800
T6C1.000
T5C1.016
T4C1.200
T3C1.300
T2C1.400
T1C3.175
%
G90
M71
T1
X160020Y37084
X160020Y1778
X112014Y37084
X112014Y1778
T2
X124670Y19685
X119170Y19685
X124670Y29972
X119170Y29972
X124670Y8890
X119170Y8890
T3
X146070Y-1340
T4
X144820Y2500
X144820Y0
X149820Y0
X149820Y2500
X147320Y2500
X147320Y0
T5
X139700Y3810
X139700Y1270
T6
X124460Y-1270
X121920Y-1270
X119380Y-1270
T7
X156210Y38100
X140970Y10160
X140970Y15240
X140970Y17780
X140970Y20320
X140970Y22860
X140970Y12700
X140970Y35560
X140970Y38100
X156210Y33020
X156210Y35560
X156210Y40640
X140970Y40640
X156210Y7620
X156210Y10160
X156210Y12700
X156210Y15240
X156210Y17780
X156210Y20320
X156210Y22860
X156210Y25400
X156210Y27940
X156210Y30480
X140970Y7620
X140970Y33020
X140970Y25400
X140970Y27940
X140970Y30480
T8
X132080Y19050
X136144Y15240
X133886Y2540
X135354Y2540
X138430Y8890
X135636Y31750
X136652Y29464
X137315Y30480
X132080Y22542
X131763Y15875
X133858Y5080
X121920Y13970
X142240Y0
X144780Y11430
X134366Y37684
X138684Y-1270
X133096Y37719
X137576Y-3810
X144780Y-3810
M30